<svg id="Capa_1" enable-background="new 0 0 512 512" height="512" viewBox="0 0 512 512" width="512" xmlns="http://www.w3.org/2000/svg"><path d="m123.462 329.116s-22.966 26.026-63.433 35.217c-9.767 2.219-17.282 10.096-18.886 19.983-3.049 18.799-10.961 49.66-31.387 75.948-3.349 4.31-2.918 10.453.941 14.312l8.06 8.06 9.725 2.025.882 8.581 8.06 8.06c3.859 3.859 10.002 4.29 14.312.941 26.288-20.426 57.148-28.338 75.948-31.387 9.887-1.604 17.764-9.119 19.983-18.886 9.191-40.467 35.217-63.433 35.217-63.433l6.6-66.022z" fill="#f8e86a"/><path d="m162.884 368.538s-26.026 22.966-35.217 63.433c-2.218 9.767-10.096 17.282-19.983 18.886-18.8 3.049-49.66 10.96-75.948 31.387-1.444 1.122-3.095 1.81-4.795 2.096l1.542.321.882 8.581 8.06 8.06c3.859 3.859 10.002 4.29 14.312.941 26.288-20.426 57.148-28.338 75.948-31.387 9.887-1.604 17.764-9.119 19.983-18.886 9.191-40.467 35.217-63.433 35.217-63.433z" fill="#fab659"/><path d="m280.428 328.727-90.944-6.211-6.211-90.944c13.665-16.508 29.047-31.587 45.908-44.97l171.194-135.842 58.047 2.817 2.817 58.047-135.84 171.195c-13.384 16.861-28.463 32.243-44.971 45.908z" fill="#80d8e6"/><path d="m458.422 53.578-19.074-.926 1.892 38.973-135.841 171.194c-13.384 16.861-28.463 32.243-44.97 45.908l-72.223-4.932 1.279 18.721 90.944 6.211c16.508-13.665 31.587-29.047 44.97-45.908l135.841-171.194z" fill="#00bed6"/><path d="m461.24 111.625-60.865-60.865 49.992-39.66c6.616-5.245 16.104-4.704 22.07 1.263l27.2 27.2c5.967 5.967 6.508 15.454 1.263 22.07z" fill="#ff97c0"/><path d="m499.637 39.563-20-20c5.966 5.967 6.507 15.454 1.262 22.07l-39.66 49.992 20 20 39.66-49.992c5.246-6.616 4.705-16.103-1.262-22.07z" fill="#ff5d9c"/><path d="m280.428 328.727c-15.122 12.539-31.442 23.621-48.758 33.102l-48.787 26.709-59.421-59.421 26.709-48.787c9.48-17.316 20.562-33.636 33.102-48.758z" fill="#ff97c0"/><path d="m260.428 308.727c-15.122 12.539-31.442 23.621-48.758 33.102l-48.787 26.709 20 20 48.787-26.709c17.316-9.48 33.636-20.563 48.758-33.102z" fill="#ff5d9c"/><path d="m269.309 220.474c-2.929 2.929-2.929 7.678 0 10.607l9.474 9.474c1.464 1.465 3.384 2.197 5.303 2.197 6.622 0 10.042-8.066 5.303-12.803l-9.474-9.475c-2.927-2.929-7.677-2.929-10.606 0z"/><path d="m367.919 121.864c-2.929 2.929-2.929 7.678 0 10.607l9.474 9.474c1.464 1.465 3.384 2.197 5.303 2.197 6.622 0 10.042-8.066 5.303-12.803l-9.474-9.474c-2.928-2.93-7.677-2.929-10.606-.001z"/><path d="m320.624 191.181c-4.125-.284-7.712 2.836-7.996 6.968-.284 4.133 2.836 7.712 6.969 7.997 19.363 1.329 35.316-14.737 33.994-33.994-.283-4.132-3.864-7.253-7.996-6.969s-7.253 3.863-6.969 7.996c.335 4.88-1.45 9.656-4.898 13.104s-8.224 5.233-13.104 4.898z"/><path d="m247.49 181.648 152.308-120.856 51.409 51.41-33.825 42.629c-2.575 3.245-2.032 7.962 1.213 10.537 3.246 2.575 7.963 2.032 10.537-1.213 79.605-100.321 13.329-16.8 77.644-97.861 7.613-9.602 6.823-23.374-1.836-32.033l-27.2-27.201c-8.66-8.66-22.432-9.448-32.035-1.834-.109.087-207.437 164.592-207.539 164.673-3.245 2.575-3.788 7.292-1.213 10.537 2.583 3.254 7.302 3.779 10.537 1.212zm207.535-164.67c3.631-2.878 8.836-2.583 12.108.689l27.2 27.2c3.272 3.272 3.567 8.477.69 12.106l-34.431 43.4-48.966-48.966z"/><path d="m32.114 506.612c6.527 6.527 16.937 7.218 24.217 1.561 24.385-18.948 52.911-26.722 72.548-29.907 12.931-2.097 23.175-11.764 26.097-24.628 7.798-34.336 28.74-55.537 32.327-58.967l47.965-26.26c29.102-15.933 47.343-31.953 49.94-33.903 16.907-13.996 32.405-29.817 46.063-47.025l79.423-100.093c2.575-3.245 2.032-7.962-1.213-10.537s-7.962-2.032-10.537 1.213l-79.423 100.094c-11.596 14.609-24.585 28.17-38.675 40.386l-87.39-87.391c9.621-11.088 20.162-21.571 31.406-31.228 3.142-2.699 3.502-7.434.803-10.576s-7.434-3.502-10.576-.803c-29.044 24.944-53.178 54.719-71.5 88.184l-26.266 47.976c-3.433 3.617-24.434 24.475-58.961 32.316-12.863 2.922-22.531 13.165-24.628 26.097-3.185 19.637-10.959 48.163-29.907 72.548-5.647 7.269-4.976 17.68 1.561 24.217zm151.754-263.831 85.351 85.351c-29.098 22.798-50.157 31.306-85.011 51.134l-51.473-51.473c19.846-34.887 28.34-55.919 51.133-85.012zm-168.196 222.091c20.889-26.883 29.404-57.989 32.869-79.35 1.113-6.865 6.273-12.31 13.143-13.87 31.015-7.044 52.216-23.315 61.734-31.964l48.894 48.894c-8.649 9.518-24.92 30.719-31.964 61.734-1.56 6.871-7.004 12.03-13.87 13.143-21.361 3.465-52.467 11.98-79.35 32.869-1.311 1.018-3.205.879-4.407-.323l-8.06-8.06 58.38-58.379c5.651 1.801 12.082.473 16.565-4.01 6.396-6.396 6.396-16.766 0-23.162s-16.766-6.396-23.162 0c-4.483 4.483-5.811 10.915-4.01 16.566l-58.38 58.379-8.06-8.06c-1.201-1.202-1.34-3.097-.322-4.407z"/></svg>