<svg xmlns="http://www.w3.org/2000/svg" id="Capa_1" width="512" height="512" enable-background="new 0 0 497 497" viewBox="0 0 497 497">
    <path fill="#e0e0e0" d="m403.391 44.291h-309.782c-24.357 0-44.102 19.745-44.102 44.102v364.505c0 24.357 19.745 44.102 44.102 44.102h309.782c24.357 0 44.102-19.745 44.102-44.102v-364.505c0-24.357-19.745-44.102-44.102-44.102z"/>
    <path fill="#bfbdc3" d="m89.507 452.898v-364.505c0-24.357 19.745-44.102 44.102-44.102h-40c-24.357 0-44.102 19.745-44.102 44.102v364.505c0 24.356 19.745 44.102 44.102 44.102h40c-24.357 0-44.102-19.745-44.102-44.102z"/>
    <ellipse cx="154.005" cy="150.751" fill="#ffa0ab" rx="34.867" ry="27.766"/>
    <ellipse cx="342.995" cy="150.751" fill="#ffa0ab" rx="34.867" ry="27.766"/>
    <path fill="#423e4f" d="m174.325 131.181c-4.142 0-7.5-3.358-7.5-7.5v-13.569c0-4.142 3.358-7.5 7.5-7.5s7.5 3.358 7.5 7.5v13.569c0 4.142-3.358 7.5-7.5 7.5z"/>
    <path fill="#423e4f" d="m248.5 140.007c-9.663 0-18.851-4.185-25.21-11.482-2.721-3.123-2.396-7.86.727-10.582 3.123-2.721 7.86-2.396 10.582.727 3.509 4.027 8.576 6.336 13.901 6.336 5.326 0 10.393-2.31 13.902-6.336 2.722-3.123 7.459-3.448 10.582-.727s3.448 7.459.727 10.582c-6.36 7.297-15.549 11.482-25.211 11.482z"/>
    <path fill="#423e4f" d="m341.02 130.802c-4.142 0-7.5-3.358-7.5-7.5 0-4.535-3.69-8.225-8.225-8.225s-8.225 3.69-8.225 8.225c0 4.142-3.358 7.5-7.5 7.5s-7.5-3.358-7.5-7.5c0-12.806 10.419-23.225 23.225-23.225s23.225 10.419 23.225 23.225c0 4.142-3.358 7.5-7.5 7.5z"/>
    <path fill="#80d8e6" d="m113.69 0c-11.09 0-20.081 8.991-20.081 20.081v28.749c0 11.091 8.991 20.081 20.081 20.081 11.091 0 20.081-8.991 20.081-20.081v-28.749c0-11.09-8.99-20.081-20.081-20.081z"/>
    <path fill="#00bed6" d="m113.609 48.83v-28.748c0-7.446 4.062-13.93 10.081-17.397-2.946-1.699-6.355-2.685-10-2.685-11.09 0-20.081 8.991-20.081 20.082v28.748c0 11.091 8.991 20.082 20.081 20.082 3.645 0 7.053-.986 10-2.684-6.019-3.468-10.081-9.952-10.081-17.398z"/>
    <path fill="#80d8e6" d="m203.563 0c-11.091 0-20.081 8.991-20.081 20.081v28.749c0 11.091 8.991 20.081 20.081 20.081 11.091 0 20.081-8.991 20.081-20.081v-28.749c.001-11.09-8.99-20.081-20.081-20.081z"/>
    <path fill="#00bed6" d="m203.482 48.83v-28.748c0-7.446 4.062-13.93 10.081-17.397-2.947-1.698-6.355-2.684-10-2.684-11.091 0-20.081 8.991-20.081 20.082v28.747c0 11.091 8.991 20.082 20.081 20.082 3.645 0 7.053-.986 10-2.684-6.019-3.468-10.081-9.952-10.081-17.398z"/>
    <path fill="#80d8e6" d="m293.437 0c-11.091 0-20.081 8.991-20.081 20.081v28.749c0 11.091 8.991 20.081 20.081 20.081 11.091 0 20.081-8.991 20.081-20.081v-28.749c0-11.09-8.991-20.081-20.081-20.081z"/>
    <path fill="#00bed6" d="m293.355 48.83v-28.748c0-7.446 4.062-13.93 10.081-17.397-2.946-1.699-6.354-2.685-9.999-2.685-11.091 0-20.081 8.991-20.081 20.082v28.748c0 11.091 8.991 20.082 20.081 20.082 3.645 0 7.053-.986 10-2.684-6.02-3.468-10.082-9.952-10.082-17.398z"/>
    <path fill="#80d8e6" d="m383.31 0c11.091 0 20.081 8.991 20.081 20.081v28.749c0 11.091-8.991 20.081-20.081 20.081-11.091 0-20.081-8.991-20.081-20.081v-28.749c0-11.09 8.99-20.081 20.081-20.081z"/>
    <path fill="#00bed6" d="m383.229 48.83v-28.748c0-7.446 4.062-13.93 10.081-17.397-2.947-1.699-6.355-2.685-10-2.685-11.091 0-20.081 8.991-20.081 20.082v28.748c0 11.091 8.991 20.082 20.081 20.082 3.645 0 7.053-.986 10-2.684-6.019-3.468-10.081-9.952-10.081-17.398z"/>
    <g fill="#423e4f">
        <path d="m377.862 220.847h-258.724c-4.142 0-7.5-3.358-7.5-7.5s3.358-7.5 7.5-7.5h258.724c4.142 0 7.5 3.358 7.5 7.5s-3.358 7.5-7.5 7.5z"/>
        <path d="m377.862 284.56h-258.724c-4.142 0-7.5-3.358-7.5-7.5s3.358-7.5 7.5-7.5h258.724c4.142 0 7.5 3.358 7.5 7.5s-3.358 7.5-7.5 7.5z"/>
        <path d="m377.862 348.272h-258.724c-4.142 0-7.5-3.358-7.5-7.5s3.358-7.5 7.5-7.5h258.724c4.142 0 7.5 3.358 7.5 7.5s-3.358 7.5-7.5 7.5z"/>
        <path d="m377.862 411.985h-258.724c-4.142 0-7.5-3.358-7.5-7.5s3.358-7.5 7.5-7.5h258.724c4.142 0 7.5 3.358 7.5 7.5s-3.358 7.5-7.5 7.5z"/>
    </g>
</svg>
