<svg height="512pt" viewBox="-26 0 512 512.02219" width="512pt" xmlns="http://www.w3.org/2000/svg"><path d="m452.277344 401.089844c-8.855469 17.578125-21.058594 33.257812-35.925782 46.164062-42.582031 37.546875-107.519531 56.234375-181.671874 56.234375-2.136719 0-4.269532 0-6.402344-.171875-80.640625-1.277344-150.699219-29.78125-188.925782-71.679687-8.433593-9.101563-15.476562-19.394531-20.910156-30.546875-.511718-1.023438-.9375-2.050782-1.363281-3.074219-5.585937-12.453125-8.492187-25.941406-8.535156-39.59375v-166.65625c0-98.558594 77.910156-181.675781 176.472656-183.210937 14.292969-.261719 28.5625 1.226562 42.492187 4.4375 81.566407 18.578124 139.433594 91.109374 139.4375 174.761718v139.09375c-.222656 16.597656 3.925782 32.960938 12.03125 47.445313 11.265626 19.371093 35.242188 35.585937 73.300782 26.796875zm0 0" fill="#00838f"/><path d="m409.609375 446.230469c-42.835937 36.949219-107.347656 55.976562-181.332031 57.085937-80.640625-1.277344-150.699219-29.78125-188.925782-71.679687-8.433593-9.101563-15.476562-19.394531-20.910156-30.546875-.511718-1.023438-.9375-2.050782-1.363281-3.074219v-221.78125c.234375-88.09375 71.816406-159.335937 159.914063-159.144531 10.839843-.027344 21.652343 1.089844 32.257812 3.328125 74.21875 14.929687 127.621094 80.113281 127.65625 155.816406v194.476563s0 54.101562 72.703125 75.519531zm0 0" fill="#00bcd4"/><g fill="#ff5364"><path d="m68.277344 187.753906c-.574219.003906-1.144532-.050781-1.707032-.167968-2.21875-.453126-4.164062-1.769532-5.414062-3.65625-1.246094-1.890626-1.695312-4.195313-1.242188-6.414063 9.386719-46.984375 63.148438-65.390625 65.402344-66.160156 2.894532-.964844 6.085938-.3125 8.371094 1.710937 2.285156 2.027344 3.316406 5.117188 2.707031 8.109375-.613281 2.988281-2.773437 5.425781-5.667969 6.394531-.472656.152344-46.636718 16.117188-54.085937 53.316407-.792969 3.988281-4.292969 6.867187-8.363281 6.867187zm0 0"/><path d="m128.011719 187.753906c-4.054688 0-7.542969-2.855468-8.355469-6.824218-4.105469-16.886719-14.734375-31.457032-29.558594-40.527344-7.609375-5.273438-15.847656-9.574219-24.523437-12.796875-4.480469-1.496094-6.898438-6.335938-5.402344-10.8125 1.492187-4.476563 6.332031-6.894531 10.8125-5.402344 10.207031 3.714844 19.890625 8.730469 28.816406 14.925781 18.433594 11.605469 31.570313 29.996094 36.574219 51.199219.453125 2.21875.003906 4.523437-1.242188 6.414063-1.25 1.886718-3.195312 3.203124-5.414062 3.65625-.5625.117187-1.132812.171874-1.707031.167968zm0 0"/><path d="m221.878906 187.753906c-.574218.003906-1.148437-.050781-1.707031-.167968-2.21875-.453126-4.167969-1.769532-5.414063-3.65625-1.25-1.890626-1.695312-4.195313-1.242187-6.414063 9.386719-46.984375 63.144531-65.390625 65.398437-66.160156 4.476563-1.492188 9.316407.925781 10.8125 5.402343 1.492188 4.476563-.925781 9.316407-5.402343 10.8125-.46875.152344-46.632813 16.117188-54.082031 53.316407-.796876 3.988281-4.296876 6.867187-8.363282 6.867187zm0 0"/><path d="m281.609375 187.753906c-4.050781 0-7.542969-2.855468-8.351563-6.824218-4.105468-16.886719-14.734374-31.457032-29.558593-40.527344-7.609375-5.273438-15.847657-9.574219-24.527344-12.796875-4.476563-1.496094-6.894531-6.335938-5.402344-10.8125 1.496094-4.476563 6.335938-6.894531 10.8125-5.402344 10.207031 3.714844 19.894531 8.730469 28.816407 14.925781 18.4375 11.605469 31.574218 29.996094 36.574218 51.199219.453125 2.21875.007813 4.523437-1.242187 6.414063-1.246094 1.886718-3.195313 3.203124-5.414063 3.65625-.558594.117187-1.132812.171874-1.707031.167968zm0 0"/></g><path d="m119.476562 315.753906v42.667969c0 18.851563-15.28125 34.132813-34.132812 34.132813s-34.132812-15.28125-34.132812-34.132813v-42.667969" fill="#00838f"/><path d="m247.476562 238.957031h-145.066406c-4.710937 0-8.53125-3.820312-8.53125-8.535156 0-4.710937 3.820313-8.53125 8.53125-8.53125h145.066406c4.714844 0 8.535157 3.820313 8.535157 8.53125 0 4.714844-3.820313 8.535156-8.535157 8.535156zm0 0" fill="#5e5f62"/><path d="m119.476562 298.6875v34.132812c0 18.851563-15.28125 34.136719-34.132812 34.136719s-34.132812-15.285156-34.132812-34.136719v-34.132812c0-4.710938 3.820312-8.53125 8.535156-8.53125h51.199218c4.710938 0 8.53125 3.820312 8.53125 8.53125zm0 0" fill="#00838f"/><path d="m68.277344 281.621094h34.132812v68.269531c0 9.425781-7.640625 17.066406-17.066406 17.066406s-17.066406-7.640625-17.066406-17.066406zm0 0" fill="#00bcd4"/><path d="m290.144531 315.753906v42.667969c0 18.851563-15.28125 34.132813-34.132812 34.132813-18.851563 0-34.132813-15.28125-34.132813-34.132813v-42.667969" fill="#00838f"/><path d="m290.144531 298.6875v34.132812c0 18.851563-15.28125 34.136719-34.132812 34.136719-18.851563 0-34.132813-15.285156-34.132813-34.136719v-34.132812c0-4.710938 3.820313-8.53125 8.53125-8.53125h51.199219c4.714844 0 8.535156 3.820312 8.535156 8.53125zm0 0" fill="#00838f"/><path d="m238.945312 281.621094h34.132813v68.269531c0 9.425781-7.640625 17.066406-17.066406 17.066406s-17.066407-7.640625-17.066407-17.066406zm0 0" fill="#00bcd4"/><path d="m179.210938 230.421875h51.199218v25.601563c0 14.136718-11.460937 25.597656-25.597656 25.597656-14.140625 0-25.601562-11.460938-25.601562-25.597656zm0 0" fill="#e91e63"/><path d="m234.679688 512.023438c109.097656 0 191.195312-39.042969 225.277343-107.121094 1.480469-2.957032 1.121094-6.503906-.925781-9.101563-2.046875-2.597656-5.410156-3.777343-8.628906-3.03125-40.355469 9.328125-58.171875-12.800781-64-22.757812-7.378906-13.175781-11.148438-28.066407-10.925782-43.164063v-139.09375c.007813-50.292968-20.167968-98.484375-56-133.777344-35.832031-35.289062-84.328124-54.726562-134.617187-53.9531245-101.921875 1.5507815-184.8476562 87.5664065-184.8476562 191.7695315v166.628906c.0703124 16.058594 3.7382812 31.898437 10.7343752 46.351563 30.738281 64.148437 120.730468 107.25 223.933594 107.25zm-217.601563-320.230469c0-94.925781 75.382813-173.289063 168.039063-174.703125h2.628906c94.253906 0 170.664062 76.410156 170.664062 170.664062v139.09375c-.21875 18.101563 4.34375 35.9375 13.234375 51.703125 13.277344 22.625 38.378907 35.597657 64.515625 33.339844-35.203125 53.027344-107.4375 83.066406-201.480468 83.066406-95.269532 0-181.019532-40.109375-208.53125-97.527343-5.894532-12.164063-8.996094-25.492188-9.070313-39.007813zm0 0"/><path d="m65.5625 127.578125c6.371094 2.371094 12.503906 5.332031 18.324219 8.839844-12.132813 10.824219-20.523438 25.210937-23.972657 41.097656-.453124 2.21875-.003906 4.523437 1.242188 6.414063 1.25 1.886718 3.195312 3.203124 5.414062 3.65625.5625.117187 1.132813.171874 1.707032.167968 4.054687 0 7.542968-2.855468 8.355468-6.824218 3.125-13.511719 10.699219-25.578126 21.511719-34.261719 10.847657 8.648437 18.433594 20.730469 21.503907 34.261719.8125 3.972656 4.308593 6.828124 8.363281 6.824218.574219.003906 1.144531-.050781 1.707031-.167968 2.21875-.453126 4.164062-1.769532 5.414062-3.65625 1.246094-1.890626 1.695313-4.195313 1.242188-6.414063-3.484375-15.875-11.890625-30.246094-24.023438-41.0625 5.835938-3.53125 11.988282-6.515625 18.375-8.910156 4.476563-1.492188 6.894532-6.332031 5.398438-10.808594-1.492188-4.480469-6.332031-6.898437-10.808594-5.402344-9.585937 3.519531-18.710937 8.191407-27.171875 13.910157-8.460937-5.6875-17.574219-10.335938-27.144531-13.851563-2.894531-.964844-6.089844-.3125-8.375 1.710937-2.285156 2.023438-3.3125 5.113282-2.703125 8.105469.609375 2.992188 2.773437 5.429688 5.667969 6.398438zm0 0"/><path d="m219.164062 127.578125c6.367188 2.371094 12.5 5.332031 18.320313 8.839844-12.128906 10.824219-20.519531 25.210937-23.96875 41.097656-.453125 2.21875-.007813 4.523437 1.242187 6.414063 1.246094 1.886718 3.195313 3.203124 5.414063 3.65625.558594.117187 1.132813.171874 1.707031.167968 4.050782 0 7.542969-2.855468 8.351563-6.824218 3.125-13.511719 10.703125-25.578126 21.515625-34.261719 10.847656 8.648437 18.433594 20.730469 21.503906 34.261719.808594 3.972656 4.304688 6.828124 8.359375 6.824218.574219.003906 1.148437-.050781 1.707031-.167968 2.21875-.453126 4.167969-1.769532 5.414063-3.65625 1.25-1.890626 1.695312-4.195313 1.242187-6.414063-3.480468-15.875-11.886718-30.246094-24.019531-41.0625 5.835937-3.53125 11.984375-6.515625 18.371094-8.910156 2.898437-.964844 5.058593-3.402344 5.667969-6.394531.613281-2.992188-.417969-6.082032-2.703126-8.105469-2.285156-2.027344-5.476562-2.679688-8.375-1.710938-9.585937 3.519531-18.707031 8.191407-27.167968 13.910157-8.464844-5.6875-17.578125-10.335938-27.144532-13.851563-4.480468-1.492187-9.320312.925781-10.8125 5.402344-1.496093 4.476562.921876 9.316406 5.402344 10.8125zm0 0"/><path d="m85.34375 401.089844c23.554688-.027344 42.640625-19.113282 42.667969-42.667969v-42.667969c0-4.710937-3.820313-8.53125-8.535157-8.53125-4.710937 0-8.53125 3.820313-8.53125 8.53125v42.667969c0 14.140625-11.460937 25.601563-25.601562 25.601563-14.136719 0-25.597656-11.460938-25.597656-25.601563v-42.667969c0-4.710937-3.820313-8.53125-8.535156-8.53125-4.710938 0-8.53125 3.820313-8.53125 8.53125v42.667969c.027343 23.554687 19.113281 42.640625 42.664062 42.667969zm0 0"/><path d="m281.609375 315.753906v42.667969c0 14.140625-11.460937 25.601563-25.597656 25.601563-14.140625 0-25.601563-11.460938-25.601563-25.601563v-42.667969c0-4.710937-3.820312-8.53125-8.53125-8.53125-4.714844 0-8.535156 3.820313-8.535156 8.53125v42.667969c0 23.566406 19.101562 42.667969 42.667969 42.667969 23.5625 0 42.667969-19.101563 42.667969-42.667969v-42.667969c0-4.710937-3.824219-8.53125-8.535157-8.53125-4.714843 0-8.535156 3.820313-8.535156 8.53125zm0 0"/><path d="m93.878906 230.421875c0 4.714844 3.820313 8.535156 8.53125 8.535156h68.269532v17.066407c0 18.851562 15.28125 34.132812 34.132812 34.132812s34.132812-15.28125 34.132812-34.132812v-17.066407h8.53125c4.714844 0 8.535157-3.820312 8.535157-8.535156 0-4.710937-3.820313-8.53125-8.535157-8.53125h-145.066406c-4.710937 0-8.53125 3.820313-8.53125 8.53125zm128 8.535156v17.066407c0 9.425781-7.640625 17.066406-17.066406 17.066406s-17.066406-7.640625-17.066406-17.066406v-17.066407zm0 0"/></svg>